<?xml version="1.0" encoding="UTF-8" standalone="no"?>
<!DOCTYPE svg PUBLIC "-//W3C//DTD SVG 1.1//EN" "http://www.w3.org/Graphics/SVG/1.1/DTD/svg11.dtd">
<!-- Created with Vectornator (http://vectornator.io/) -->
<svg height="100%" stroke-miterlimit="10" style="fill-rule:nonzero;clip-rule:evenodd;stroke-linecap:round;stroke-linejoin:round;" version="1.1" viewBox="0 0 1000 400" width="100%" xml:space="preserve" xmlns="http://www.w3.org/2000/svg" xmlns:vectornator="http://vectornator.io" xmlns:xlink="http://www.w3.org/1999/xlink">
<defs>
<filter color-interpolation-filters="sRGB" filterUnits="userSpaceOnUse" height="126.9" id="Filter" width="835.546" x="133.171" y="109.603">
<feDropShadow dx="14.1421" dy="14.1421" flood-color="#000000" flood-opacity="0.333" in="SourceGraphic" result="Shadow" stdDeviation="5"/>
</filter>
<filter color-interpolation-filters="sRGB" filterUnits="userSpaceOnUse" height="83.0264" id="Filter_2" width="69.5242" x="472.309" y="1.89229">
<feDropShadow dx="7.07107" dy="7.07107" flood-color="#000000" flood-opacity="0.333" in="SourceGraphic" result="Shadow" stdDeviation="5"/>
</filter>
<filter color-interpolation-filters="sRGB" filterUnits="userSpaceOnUse" height="164.765" id="Filter_3" width="164.764" x="61.4338" y="86.9965">
<feDropShadow dx="14.1421" dy="14.1421" flood-color="#000000" flood-opacity="0.333" in="SourceGraphic" result="Shadow" stdDeviation="5"/>
</filter>
<filter color-interpolation-filters="sRGB" filterUnits="userSpaceOnUse" height="29.6233" id="Filter_4" width="29.6233" x="185.514" y="114.892">
<feDropShadow dx="14.1421" dy="14.1421" flood-color="#000000" flood-opacity="0.333" in="SourceGraphic" result="Shadow" stdDeviation="5"/>
</filter>
<filter color-interpolation-filters="sRGB" filterUnits="userSpaceOnUse" height="127.868" id="Filter_5" width="835.546" x="57.9243" y="262.754">
<feDropShadow dx="14.1421" dy="14.1421" flood-color="#000000" flood-opacity="0.333" in="SourceGraphic" result="Shadow" stdDeviation="5"/>
</filter>
<filter color-interpolation-filters="sRGB" filterUnits="userSpaceOnUse" height="164.765" id="Filter_6" width="164.764" x="800.444" y="238.368">
<feDropShadow dx="14.1421" dy="14.1421" flood-color="#000000" flood-opacity="0.333" in="SourceGraphic" result="Shadow" stdDeviation="5"/>
</filter>
<filter color-interpolation-filters="sRGB" filterUnits="userSpaceOnUse" height="29.6233" id="Filter_7" width="29.6233" x="811.505" y="266.264">
<feDropShadow dx="14.1421" dy="14.1421" flood-color="#000000" flood-opacity="0.333" in="SourceGraphic" result="Shadow" stdDeviation="5"/>
</filter>
</defs>
<clipPath id="ArtboardFrame">
<rect height="400" width="1000" x="0" y="0"/>
</clipPath>
<g clip-path="url(#ArtboardFrame)" id="图层-1" vectornator:layerName="图层 1">
<path d="M148.202 118.056L887.528 114.603L875.259 156.058L909.005 156.058L937.076 197.512L138.171 204.861" fill="#0078ea" fill-rule="nonzero" filter="url(#Filter)" stroke="#ffd335" stroke-linecap="butt" stroke-linejoin="round" stroke-width="10" vectornator:layerName="曲线 2" vectornator:shadowAngle="0.785398" vectornator:shadowColor="#000000" vectornator:shadowOffset="20" vectornator:shadowOpacity="0.333" vectornator:shadowRadius="10"/>
<g filter="url(#Filter_2)" vectornator:layerName="成组 1" vectornator:shadowAngle="0.785398" vectornator:shadowColor="#000000" vectornator:shadowOffset="10" vectornator:shadowOpacity="0.333" vectornator:shadowRadius="10">
<path d="M500.011 12.3212C481.478 32.9104 487.644 26.7951 483.521 31.6197C479.398 36.4443 492.746 32.5486 495.821 32.8582C498.896 33.1678 494.775 60.3477 494.775 60.3477L510.075 59.6394L507.632 32.1203L517.262 30.8536L500.011 12.3212Z" fill="#3395ff" fill-rule="nonzero" opacity="1" stroke="#007aff" stroke-linecap="butt" stroke-linejoin="round" stroke-width="10" vectornator:layerName="曲线 1"/>
<g opacity="1" vectornator:layerName="曲线 2">
<path d="M509.428 41.1604C510.097 47.5685 508.274 53.5834 507.994 55.4341C507.714 57.2848 507 57.6993 507 57.6993" fill="#3395ff" fill-rule="nonzero" stroke="none"/>
<path d="M510.094 40.2812C509.815 40.2151 509.47 40.2203 509.125 40.3438C508.435 40.5906 508.027 41.1451 508.188 41.5938C508.618 45.1861 508.667 48.8132 508.219 52.4062C508.073 53.5769 507.898 54.7509 507.656 55.9062C507.574 56.301 507.47 56.7049 507.281 57.0625C507.208 57.2008 507.104 57.3202 507 57.4375C506.966 57.4758 506.866 57.5941 506.906 57.5625C506.854 57.5985 506.851 57.669 506.906 57.75C506.962 57.831 507.041 57.8797 507.094 57.8438C508.216 57.0989 508.277 54.9185 508.625 53.7188C509.857 49.4659 510.96 45.1777 510.688 40.7188C510.607 40.4944 510.373 40.3474 510.094 40.2812Z" fill="#ffffff" stroke="none"/>
</g>
</g>
<path d="M62.9243 156.058C62.9243 118.739 93.1766 88.487 130.495 88.487C151.229 88.487 169.782 97.826 182.177 112.527C192.091 124.285 198.065 139.474 198.065 156.058C198.065 193.376 167.813 223.628 130.495 223.628C93.1766 223.628 62.9243 193.376 62.9243 156.058Z" fill="#2d1818" fill-rule="nonzero" filter="url(#Filter_3)" stroke="#ffffff" stroke-linecap="butt" stroke-linejoin="round" stroke-width="2.98114" vectornator:layerName="椭圆 1" vectornator:shadowAngle="0.785398" vectornator:shadowColor="#000000" vectornator:shadowOffset="20" vectornator:shadowOpacity="0.333" vectornator:shadowRadius="10"/>
<path d="M114.099 148.035L115.179 139.467L129.579 132.123L136.779 132.123L130.155 186.195L121.659 186.195L127.131 141.699L114.099 148.035Z" fill="#ffffff" opacity="1" stroke="none" vectornator:layerName="文本 1"/>
<path d="M187.005 116.383" fill="none" filter="url(#Filter_4)" stroke="#ffffff" stroke-linecap="butt" stroke-linejoin="round" stroke-width="2.98114" vectornator:layerName="曲线 1" vectornator:shadowAngle="0.785398" vectornator:shadowColor="#000000" vectornator:shadowOffset="20" vectornator:shadowOpacity="0.333" vectornator:shadowRadius="10"/>
<g fill="#ffffff" opacity="1" stroke="none" vectornator:layerName="文本 2">
<path d="M243.629 142.988L243.101 147.164L226.541 147.164L225.965 151.916L236.669 151.916C237.821 151.916 238.701 152.204 239.309 152.78C239.917 153.356 240.221 154.188 240.221 155.276C240.221 155.628 240.205 155.9 240.173 156.092L238.877 166.796L207.581 166.796L209.021 155.036C209.181 154.044 209.573 153.276 210.197 152.732C210.821 152.188 211.645 151.916 212.669 151.916L221.165 151.916L222.749 138.86L227.549 138.86L227.021 142.988L243.629 142.988ZM235.181 156.14L213.629 156.14L212.861 162.572L234.413 162.572L235.181 156.14ZM202.397 179.852L206.813 169.484L211.565 169.484L207.581 179.852L202.397 179.852ZM234.317 169.484L238.925 169.484L242.573 179.852L237.821 179.852L234.317 169.484ZM215.021 169.58L219.581 169.58L220.445 179.852L215.837 179.852L215.021 169.58ZM224.573 169.58L229.229 169.58L231.341 179.852L226.685 179.852L224.573 169.58Z"/>
<path d="M276.413 138.86L275.789 144.908L290.909 144.908L290.429 149.468L275.309 149.468L274.637 155.804L292.109 155.804L291.629 160.412L274.157 160.412L272.717 174.716L282.125 174.716L283.325 163.484L288.221 163.484L286.589 179.228L257.549 179.228C255.149 179.228 253.949 178.204 253.949 176.156C253.949 175.964 253.981 175.644 254.045 175.196L255.437 163.484L260.429 163.484L259.037 174.716L267.725 174.716L269.165 160.412L251.885 160.412L252.413 155.804L269.645 155.804L270.317 149.468L255.725 149.468L256.253 144.908L270.797 144.908L271.421 138.86L276.413 138.86Z"/>
<path d="M334.157 139.388C332.717 143.868 331.597 147.868 330.797 151.388L325.421 151.388C326.573 147.452 327.997 143.452 329.693 139.388L334.157 139.388ZM343.757 139.388C342.317 143.868 341.197 147.868 340.397 151.388L335.021 151.388C336.173 147.452 337.597 143.452 339.293 139.388L343.757 139.388Z"/>
<path d="M388.109 145.58L377.693 145.58L377.357 147.932L382.733 147.932C385.229 147.932 386.477 148.94 386.477 150.956C386.477 151.276 386.461 151.532 386.429 151.724L384.173 169.1L388.109 169.1L387.629 172.604L359.453 172.604L359.933 169.1L362.093 169.1L364.349 151.436C364.541 150.252 364.909 149.372 365.453 148.796C365.997 148.22 366.861 147.932 368.045 147.932L372.749 147.932L373.085 145.58L363.149 145.58L363.677 141.884L373.661 141.884L374.189 138.524L378.797 138.524L378.269 141.884L388.637 141.884L388.109 145.58ZM360.413 168.572C358.557 169.34 356.125 170.236 353.117 171.26C349.725 172.412 347.309 173.196 345.869 173.612L346.301 169.052L350.861 167.708L352.637 153.356L347.885 153.356L348.413 149.228L353.117 149.228L354.365 139.292L358.925 139.292L357.677 149.228L361.901 149.228L361.421 153.356L357.149 153.356L355.565 166.172L360.701 164.3L360.413 168.572ZM382.061 151.388L368.621 151.388L368.333 153.5L381.773 153.5L382.061 151.388ZM381.437 156.572L367.949 156.572L367.661 158.684L381.197 158.684L381.437 156.572ZM380.813 161.756L367.277 161.756L367.037 163.868L380.573 163.868L380.813 161.756ZM380.237 166.94L366.605 166.94L366.365 169.1L379.949 169.1L380.237 166.94ZM379.709 173.948L386.333 179.612L380.429 179.612L374.093 173.948L379.709 173.948ZM363.485 179.66L357.149 179.66L365.453 173.996L371.549 173.996L363.485 179.66Z"/>
<path d="M431.885 140.828C433.389 140.828 434.469 141.076 435.125 141.572C435.781 142.068 436.109 142.876 436.109 143.996C436.109 144.22 436.077 144.588 436.013 145.1L435.389 151.052L430.685 151.052L431.309 145.052L403.229 145.052L402.509 151.244L397.709 151.244L398.429 144.764C398.621 143.356 399.053 142.348 399.725 141.74C400.397 141.132 401.453 140.828 402.893 140.828L431.885 140.828ZM429.341 154.268L409.229 154.268L408.125 158.348L427.661 158.348C429.133 158.348 430.197 158.588 430.853 159.068C431.509 159.548 431.837 160.396 431.837 161.612C431.837 161.996 431.821 162.3 431.789 162.524C431.597 164.764 431.325 167.18 430.973 169.772C430.717 171.724 430.381 173.756 429.965 175.868C429.677 177.404 429.109 178.484 428.261 179.108C427.413 179.732 426.189 179.98 424.589 179.852C421.357 179.564 417.805 178.988 413.933 178.124L414.461 173.66C418.237 174.492 421.437 175.068 424.061 175.388C424.189 175.42 424.333 175.436 424.493 175.436C424.781 175.436 424.981 175.364 425.093 175.22C425.205 175.076 425.293 174.796 425.357 174.38C425.869 171.34 426.397 167.34 426.941 162.38L406.589 162.38C405.341 162.38 404.429 162.18 403.853 161.78C403.277 161.38 402.989 160.748 402.989 159.884C402.989 159.308 403.069 158.764 403.229 158.252L406.397 146.828L411.245 146.828L410.285 150.38L429.821 150.38L429.341 154.268ZM423.053 166.508L422.621 170.396L395.837 170.396L396.365 166.508L423.053 166.508Z"/>
<path d="M480.317 153.884L466.925 153.884L466.493 157.532L483.725 157.532L483.293 161.516L466.349 161.516C467.501 163.66 468.973 165.724 470.765 167.708C473.069 165.98 474.813 164.54 475.997 163.388L482.237 163.388C480.157 165.276 478.509 166.748 477.293 167.804C476.077 168.86 474.877 169.82 473.693 170.684C476.797 173.436 480.061 175.676 483.485 177.404L479.309 180.284C472.237 175.9 466.717 170.236 462.749 163.292C460.925 164.956 459.373 166.22 458.093 167.084L457.277 174.62C457.277 175.1 457.469 175.34 457.853 175.34C458.045 175.34 458.333 175.276 458.717 175.148C459.101 175.02 459.437 174.924 459.725 174.86L461.885 174.188L464.093 173.516L465.917 172.94L465.437 177.404C464.893 177.628 464.189 177.86 463.325 178.1C462.461 178.34 461.901 178.492 461.645 178.556L460.541 178.844C458.461 179.388 456.829 179.756 455.645 179.948C455.485 179.98 455.261 179.996 454.973 179.996C454.045 179.996 453.341 179.692 452.861 179.084C452.381 178.476 452.205 177.692 452.333 176.732L453.101 170.108C450.573 171.42 447.821 172.572 444.845 173.564L441.581 170.204C448.621 167.708 454.205 164.812 458.333 161.516L444.749 161.516L445.181 157.532L461.549 157.532L461.981 153.884L449.021 153.884L449.453 149.948L462.461 149.948L462.845 146.588L448.013 146.588L448.445 142.604L463.325 142.604L463.805 138.86L468.749 138.86L468.269 142.604L483.197 142.604L482.765 146.588L467.789 146.588L467.405 149.948L480.749 149.948L480.317 153.884Z"/>
<path d="M531.293 167.756L530.765 172.076L513.053 172.076L512.093 180.332L507.293 180.332L508.253 172.076L491.501 172.076L492.029 167.756L508.733 167.756L509.165 163.964L495.293 163.964L497.309 146.924C497.469 145.868 497.861 145.06 498.485 144.5C499.109 143.94 499.933 143.66 500.957 143.66L504.797 143.66L502.685 138.956L507.581 138.956L509.789 143.66L517.709 143.66L520.013 138.956L525.101 138.956L522.701 143.66L526.157 143.66C527.277 143.66 528.149 143.964 528.773 144.572C529.397 145.18 529.709 146.044 529.709 147.164C529.709 147.516 529.693 147.788 529.661 147.98L527.645 163.964L513.965 163.964L513.533 167.756L531.293 167.756ZM511.085 147.836L501.773 147.836L501.293 151.868L510.605 151.868L511.085 147.836ZM524.525 151.868L525.053 147.836L515.885 147.836L515.405 151.868L524.525 151.868ZM510.125 155.852L500.813 155.852L500.381 159.836L509.645 159.836L510.125 155.852ZM514.925 155.852L514.445 159.836L523.517 159.836L523.997 155.852L514.925 155.852Z"/>
<path d="M540.029 151.388C541.469 146.908 542.589 142.908 543.389 139.388L548.765 139.388C547.613 143.324 546.189 147.324 544.493 151.388L540.029 151.388ZM549.629 151.388C551.069 146.908 552.189 142.908 552.989 139.388L558.365 139.388C557.213 143.324 555.789 147.324 554.093 151.388L549.629 151.388Z"/>
<path d="M628.349 158.54L627.869 162.908L621.773 162.908L620.429 174.428L615.869 174.428L617.213 162.908L609.533 162.908C608.957 165.244 608.149 167.428 607.109 169.46C606.069 171.492 604.973 173.116 603.821 174.332L599.837 172.316C601.181 170.748 602.269 169.268 603.101 167.876C603.933 166.484 604.605 164.828 605.117 162.908L600.125 162.908L600.653 158.54L605.837 158.54L606.797 150.38L602.333 150.38L602.861 146.06L607.277 146.06L608.045 139.484L612.605 139.484L611.789 146.06L619.229 146.06L620.045 139.484L624.557 139.484L623.741 146.06L628.109 146.06L627.629 150.38L623.261 150.38L622.301 158.54L628.349 158.54ZM591.149 139.58L599.885 143.66L599.261 148.652L590.621 144.524L591.149 139.58ZM618.749 150.38L611.261 150.38L610.253 158.54L617.741 158.54L618.749 150.38ZM587.597 155.9L588.125 151.58L594.845 151.58C595.741 151.58 596.445 151.852 596.957 152.396C597.469 152.94 597.725 153.708 597.725 154.7C597.725 155.052 597.709 155.324 597.677 155.516L595.949 169.34L595.805 170.156C596.957 171.852 598.269 173.148 599.741 174.044C601.853 175.388 604.429 175.996 607.469 175.868L628.061 175.868L626.669 180.284L605.741 180.284C603.053 180.284 600.637 179.708 598.493 178.556C596.989 177.756 595.581 176.572 594.269 175.004C593.341 177.052 592.157 178.908 590.717 180.572L585.869 179.324C589.069 175.964 590.909 172.444 591.389 168.764L592.877 155.9L587.597 155.9Z"/>
<path d="M655.517 144.956L646.781 144.956L647.357 140.252L655.901 140.252C657.245 140.252 658.245 140.572 658.901 141.212C659.557 141.852 660.013 142.924 660.269 144.428C661.229 150.892 663.085 157.02 665.837 162.812C668.589 168.604 672.365 173.804 677.165 178.412L671.501 180.14C668.973 177.516 666.525 174.124 664.157 169.964C661.661 165.58 659.613 160.828 658.013 155.708C655.869 160.924 653.181 165.628 649.949 169.82C646.685 174.076 643.037 177.58 639.005 180.332L634.301 178.028C639.613 174.156 643.981 169.756 647.405 164.828C650.957 159.74 653.773 153.788 655.853 146.972L655.517 144.956Z"/>
<path d="M705.437 142.844L704.957 146.78L685.901 146.78L686.333 142.844L693.677 142.844L692.717 138.908L697.325 138.908L698.381 142.844L705.437 142.844ZM707.933 145.868C708.061 144.716 708.357 143.868 708.821 143.324C709.285 142.78 710.029 142.444 711.053 142.316C712.333 142.156 714.381 141.82 717.197 141.308C719.213 140.924 721.677 140.396 724.589 139.724L724.061 144.284C720.541 145.116 716.685 145.788 712.493 146.3L711.629 153.308L724.877 153.308L724.397 157.484L720.605 157.484L718.205 180.236L713.837 180.236L716.237 157.484L711.149 157.484L710.525 162.716C710.173 165.948 709.485 169.292 708.461 172.748C707.469 176.172 706.429 178.764 705.341 180.524L701.021 179.228C701.949 177.596 702.669 176.076 703.181 174.668L699.533 174.668L697.757 166.7L701.597 166.7L703.373 174.236C704.653 170.908 705.533 167.036 706.013 162.62L707.933 145.868ZM704.909 157.052L697.037 157.052L696.653 160.844L703.805 160.844L703.277 164.876L696.221 164.876L694.973 176.876C694.653 179.212 693.453 180.3 691.373 180.14C689.389 179.948 687.645 179.676 686.141 179.324L686.669 175.196C687.565 175.452 688.605 175.66 689.789 175.82C689.885 175.852 689.997 175.868 690.125 175.868C690.381 175.868 690.557 175.644 690.653 175.196L691.757 164.876L683.885 164.876L684.365 160.844L692.189 160.844L692.621 157.052L683.789 157.052L684.317 153.116L689.453 153.116L688.205 147.884L691.997 147.884L693.389 153.116L697.085 153.116L699.149 147.884L703.037 147.884L701.069 153.116L705.341 153.116L704.909 157.052ZM685.469 166.652L689.549 166.652L685.661 175.676L681.341 175.676L685.469 166.652Z"/>
<path d="M771.869 145.292L755.549 145.292L753.965 149.9L764.525 149.9C767.021 149.9 768.269 151.004 768.269 153.212C768.269 153.628 768.253 153.948 768.221 154.172L766.397 169.052L761.501 169.052L763.325 154.124L741.965 154.124L740.093 169.34L735.341 169.34L737.261 153.548C737.613 151.116 738.973 149.9 741.341 149.9L748.925 149.9L750.605 145.292L734.189 145.292L734.669 140.972L772.397 140.972L771.869 145.292ZM765.677 180.716C763.597 178.988 761.277 177.18 758.717 175.292C755.709 173.148 753.021 171.292 750.653 169.724C747.485 174.012 742.125 177.612 734.573 180.524L730.781 177.356C736.637 175.404 741.213 172.796 744.509 169.532C745.949 168.156 747.069 166.716 747.869 165.212C748.669 163.708 749.165 162.236 749.357 160.796L749.837 156.476L754.589 156.476L754.013 161.564C753.789 163.164 753.341 164.732 752.669 166.268C755.037 167.612 758.173 169.58 762.077 172.172L766.541 175.244L770.381 177.98L765.677 180.716Z"/>
<path d="M814.589 179.708L779.837 179.708L782.909 154.22C783.101 152.748 783.573 151.652 784.325 150.932C785.077 150.212 786.173 149.852 787.613 149.852L795.533 149.852L797.789 145.196L781.181 145.196L781.661 140.78L820.685 140.78L820.157 145.196L802.781 145.196L800.717 149.852L813.821 149.852C816.349 149.852 817.613 151.004 817.613 153.308C817.613 153.692 817.597 153.98 817.565 154.172L814.589 179.708ZM792.605 154.028L787.469 154.028L784.925 175.484L790.109 175.484L792.605 154.028ZM803.021 154.028L796.877 154.028L796.301 158.636L802.445 158.636L803.021 154.028ZM804.749 175.484L810.365 175.484L812.957 154.028L807.293 154.028L804.749 175.484ZM802.013 162.428L795.869 162.428L795.437 166.46L801.533 166.46L802.013 162.428ZM801.101 170.3L795.005 170.3L794.381 175.484L800.477 175.484L801.101 170.3Z"/>
</g>
<path d="M851.798 269.428L107.271 267.754L124.741 307.429L90.9945 307.429L62.9243 358.98L861.829 356.233" fill="#0078ea" fill-rule="nonzero" filter="url(#Filter_5)" stroke="#ffd335" stroke-linecap="butt" stroke-linejoin="round" stroke-width="10" vectornator:layerName="曲线 3" vectornator:shadowAngle="0.785398" vectornator:shadowColor="#000000" vectornator:shadowOffset="20" vectornator:shadowOpacity="0.333" vectornator:shadowRadius="10"/>
<path d="M937.076 307.429C937.076 270.111 906.823 239.859 869.505 239.859C848.771 239.859 830.218 249.198 817.823 263.899C807.909 275.657 801.935 290.845 801.935 307.429C801.935 344.748 832.187 375 869.505 375C906.823 375 937.076 344.748 937.076 307.429Z" fill="#2d1818" fill-rule="nonzero" filter="url(#Filter_6)" stroke="#ffffff" stroke-linecap="butt" stroke-linejoin="round" stroke-width="2.98114" vectornator:layerName="椭圆 2" vectornator:shadowAngle="0.785398" vectornator:shadowColor="#000000" vectornator:shadowOffset="20" vectornator:shadowOpacity="0.333" vectornator:shadowRadius="10"/>
<path d="M875.553 300.793C875.793 298.345 875.181 296.449 873.717 295.105C872.253 293.761 869.913 293.089 866.697 293.089C862.089 293.089 857.721 293.449 853.593 294.169L854.601 286.033C859.209 285.457 863.553 285.169 867.633 285.169C873.201 285.169 877.341 286.465 880.053 289.057C882.765 291.649 884.121 294.937 884.121 298.921C884.121 299.689 884.097 300.265 884.049 300.649C883.665 303.673 882.849 306.193 881.601 308.209C880.353 310.225 878.697 311.941 876.633 313.357C874.569 314.773 871.833 316.249 868.425 317.785C865.977 318.889 863.949 319.969 862.341 321.025C860.733 322.081 859.377 323.449 858.273 325.129C857.169 326.809 856.449 328.873 856.113 331.321L879.945 331.321L879.009 339.241L846.753 339.241L847.833 331.321C848.601 326.425 850.509 322.381 853.557 319.189C856.605 315.997 860.193 313.513 864.321 311.737C867.105 310.489 869.157 309.493 870.477 308.749C871.797 308.005 872.913 307.009 873.825 305.761C874.737 304.513 875.313 302.857 875.553 300.793Z" fill="#ffffff" opacity="1" stroke="none" vectornator:layerName="文本 3"/>
<path d="M812.995 267.754" fill="none" filter="url(#Filter_7)" stroke="#ffffff" stroke-linecap="butt" stroke-linejoin="round" stroke-width="2.98114" vectornator:layerName="曲线 4" vectornator:shadowAngle="0.785398" vectornator:shadowColor="#000000" vectornator:shadowOffset="20" vectornator:shadowOpacity="0.333" vectornator:shadowRadius="10"/>
<g fill="#ffffff" opacity="1" stroke="none" vectornator:layerName="文本 4">
<path d="M159.219 315.528C157.907 316.808 156.467 318.024 154.899 319.176L151.347 316.68L149.667 331.848L144.963 331.848L147.699 308.088L145.587 311.352L140.115 311.352C144.979 304.344 149.027 297.416 152.259 290.568L157.731 290.568C155.875 294.024 154.435 296.664 153.411 298.488L151.395 316.296C154.371 314.184 157.187 311.592 159.843 308.52C162.083 305.928 163.955 303.224 165.459 300.408L156.147 300.408L156.675 295.944L167.619 295.944L166.035 290.328L171.123 290.328L172.803 295.944L183.171 295.944L182.643 300.408L171.699 300.408C172.083 303.736 172.755 307.112 173.715 310.536C176.467 309.352 179.299 307.912 182.211 306.216L181.587 311.592C179.763 312.744 177.603 313.8 175.107 314.76C177.155 320.264 179.827 325.016 183.123 329.016L178.563 331.272C175.907 328.04 173.603 323.944 171.651 318.984C169.827 314.376 168.515 309.64 167.715 304.776C166.723 306.408 165.651 307.976 164.499 309.48L163.011 324.888C162.979 324.984 162.963 325.112 162.963 325.272C162.963 325.72 163.251 325.88 163.827 325.752C165.747 325.272 167.827 324.568 170.067 323.64L169.539 328.824C167.139 329.848 164.595 330.584 161.907 331.032C161.651 331.096 161.283 331.128 160.803 331.128C158.691 331.128 157.715 329.88 157.875 327.384L159.219 315.528Z"/>
<path d="M215.571 290.52L214.947 292.248C214.243 294.264 213.763 295.544 213.507 296.088L226.995 296.088C228.371 296.088 229.371 296.296 229.995 296.712C230.619 297.128 230.931 297.768 230.931 298.632C230.931 299.24 230.819 299.88 230.595 300.552L227.139 309.816L222.339 309.816L225.795 300.456L211.779 300.456C210.147 304.296 208.867 307.24 207.939 309.288L202.947 309.288C205.667 303.528 208.259 297.272 210.723 290.52L215.571 290.52ZM193.827 292.968L203.283 298.584L202.707 303.672L193.203 298.056L193.827 292.968ZM214.275 304.008L218.931 304.008L217.971 310.104C218.675 313.528 220.051 316.808 222.099 319.944C224.147 323.08 226.867 326.296 230.259 329.592L225.891 331.848C223.555 329.416 221.547 327.008 219.867 324.624C218.187 322.24 216.803 319.72 215.715 317.064C214.339 319.944 212.579 322.632 210.435 325.128C208.291 327.624 205.875 329.864 203.187 331.848L198.819 329.496C202.595 326.744 205.603 323.992 207.843 321.24C210.659 317.784 212.451 314.168 213.219 310.392L214.275 304.008ZM202.275 310.536C199.779 317.192 197.107 323.592 194.259 329.736L189.171 329.736C190.899 325.928 192.323 322.696 193.443 320.04C194.307 317.96 195.555 314.792 197.187 310.536L202.275 310.536Z"/>
<path d="M278.979 296.952L268.563 296.952L268.227 299.304L273.603 299.304C276.099 299.304 277.347 300.312 277.347 302.328C277.347 302.648 277.331 302.904 277.299 303.096L275.043 320.472L278.979 320.472L278.499 323.976L250.323 323.976L250.803 320.472L252.963 320.472L255.219 302.808C255.411 301.624 255.779 300.744 256.323 300.168C256.867 299.592 257.731 299.304 258.915 299.304L263.619 299.304L263.955 296.952L254.019 296.952L254.547 293.256L264.531 293.256L265.059 289.896L269.667 289.896L269.139 293.256L279.507 293.256L278.979 296.952ZM251.283 319.944C249.427 320.712 246.995 321.608 243.987 322.632C240.595 323.784 238.179 324.568 236.739 324.984L237.171 320.424L241.731 319.08L243.507 304.728L238.755 304.728L239.283 300.6L243.987 300.6L245.235 290.664L249.795 290.664L248.547 300.6L252.771 300.6L252.291 304.728L248.019 304.728L246.435 317.544L251.571 315.672L251.283 319.944ZM272.931 302.76L259.491 302.76L259.203 304.872L272.643 304.872L272.931 302.76ZM272.307 307.944L258.819 307.944L258.531 310.056L272.067 310.056L272.307 307.944ZM271.683 313.128L258.147 313.128L257.907 315.24L271.443 315.24L271.683 313.128ZM271.107 318.312L257.475 318.312L257.235 320.472L270.819 320.472L271.107 318.312ZM270.579 325.32L277.203 330.984L271.299 330.984L264.963 325.32L270.579 325.32ZM254.355 331.032L248.019 331.032L256.323 325.368L262.419 325.368L254.355 331.032Z"/>
<path d="M322.755 292.2C324.259 292.2 325.339 292.448 325.995 292.944C326.651 293.44 326.979 294.248 326.979 295.368C326.979 295.592 326.947 295.96 326.883 296.472L326.259 302.424L321.555 302.424L322.179 296.424L294.099 296.424L293.379 302.616L288.579 302.616L289.299 296.136C289.491 294.728 289.923 293.72 290.595 293.112C291.267 292.504 292.323 292.2 293.763 292.2L322.755 292.2ZM320.211 305.64L300.099 305.64L298.995 309.72L318.531 309.72C320.003 309.72 321.067 309.96 321.723 310.44C322.379 310.92 322.707 311.768 322.707 312.984C322.707 313.368 322.691 313.672 322.659 313.896C322.467 316.136 322.195 318.552 321.843 321.144C321.587 323.096 321.251 325.128 320.835 327.24C320.547 328.776 319.979 329.856 319.131 330.48C318.283 331.104 317.059 331.352 315.459 331.224C312.227 330.936 308.675 330.36 304.803 329.496L305.331 325.032C309.107 325.864 312.307 326.44 314.931 326.76C315.059 326.792 315.203 326.808 315.363 326.808C315.651 326.808 315.851 326.736 315.963 326.592C316.075 326.448 316.163 326.168 316.227 325.752C316.739 322.712 317.267 318.712 317.811 313.752L297.459 313.752C296.211 313.752 295.299 313.552 294.723 313.152C294.147 312.752 293.859 312.12 293.859 311.256C293.859 310.68 293.939 310.136 294.099 309.624L297.267 298.2L302.115 298.2L301.155 301.752L320.691 301.752L320.211 305.64ZM313.923 317.88L313.491 321.768L286.707 321.768L287.235 317.88L313.923 317.88Z"/>
<path d="M341.715 311.16C339.923 314.424 337.987 317.496 335.907 320.376L332.355 318.36C336.291 312.92 339.491 307.608 341.955 302.424L335.811 302.424L336.387 298.2L343.299 298.2L344.307 290.184L348.771 290.184L347.763 298.2L353.187 298.2L352.659 302.424L347.235 302.424L347.091 303.624C349.267 307.048 351.091 310.232 352.563 313.176L349.107 315.432C348.019 313.064 347.107 311.144 346.371 309.672L343.683 331.464L339.219 331.464L341.715 311.16ZM370.947 330.696L351.171 330.696L355.443 295.704C355.571 294.68 355.987 293.808 356.691 293.088C357.395 292.368 358.275 292.008 359.331 292.008L371.523 292.008C372.675 292.008 373.619 292.432 374.355 293.28C375.091 294.128 375.379 295.192 375.219 296.472L370.947 330.696ZM370.755 296.136L359.907 296.136L358.947 303.528L369.843 303.528L370.755 296.136ZM369.363 307.416L358.467 307.416L357.555 314.712L368.451 314.712L369.363 307.416ZM356.067 326.568L366.963 326.568L367.971 318.552L357.075 318.552L356.067 326.568Z"/>
<path d="M421.299 297.192L420.771 301.464L406.131 301.464L405.411 307.416L405.267 308.28L405.075 309.144L422.691 309.144L422.211 313.56L405.603 313.56C407.427 316.632 409.699 319.392 412.419 321.84C415.139 324.288 418.467 326.6 422.403 328.776L418.035 332.088C414.867 330.2 411.931 327.904 409.227 325.2C406.523 322.496 404.259 319.608 402.435 316.536C400.739 319.672 398.467 322.488 395.619 324.984C392.771 327.48 389.251 329.8 385.059 331.944L380.691 329.016C385.651 326.36 389.443 323.912 392.067 321.672C395.075 319.08 397.219 316.376 398.499 313.56L383.235 313.56L383.715 309.144L399.987 309.144L400.227 307.896L401.091 301.464L386.643 301.464L387.123 297.192L394.947 297.192L392.595 290.28L397.587 290.28L399.939 297.192L408.627 297.192L411.411 290.28L416.547 290.28L413.571 297.192L421.299 297.192Z"/>
<path d="M461.379 294.552L472.467 294.552L471.939 298.92L444.867 298.92L445.395 294.552L456.195 294.552L454.995 290.376L460.035 290.376L461.379 294.552ZM446.643 290.472C445.427 292.712 443.779 295.608 441.699 299.16L437.859 331.704L433.155 331.704L435.987 308.472C435.315 309.496 434.643 310.456 433.971 311.352L428.163 311.352C430.499 308.216 432.595 305.104 434.451 302.016C436.307 298.928 438.531 295.08 441.123 290.472L446.643 290.472ZM446.451 302.04L469.731 302.04L469.299 306.12L445.971 306.12L446.451 302.04ZM445.683 309.384L469.299 309.384L468.867 313.416L445.203 313.416L445.683 309.384ZM467.235 331.224L443.283 331.224L444.483 320.232C444.803 317.608 446.339 316.296 449.091 316.296L464.739 316.296C467.267 316.296 468.531 317.336 468.531 319.416C468.531 319.736 468.515 319.992 468.483 320.184L467.235 331.224ZM448.611 327.24L462.867 327.24L463.635 320.232L449.331 320.232L448.611 327.24Z"/>
<path d="M513.651 315.864L482.787 315.864L485.283 296.184C485.539 294.104 486.771 293.064 488.979 293.064L495.795 293.064L497.235 289.992L502.227 289.992L500.931 293.064L512.115 293.064C514.867 293.064 516.243 294.152 516.243 296.328C516.243 296.68 516.227 296.936 516.195 297.096L513.651 315.864ZM511.539 296.856L489.795 296.856L489.411 299.592L511.155 299.592L511.539 296.856ZM510.675 303.048L488.979 303.048L488.643 305.784L510.339 305.784L510.675 303.048ZM487.827 311.976L509.475 311.976L509.859 309.24L488.163 309.24L487.827 311.976ZM508.803 330.024C506.563 330.856 503.555 331.272 499.779 331.272L491.571 331.272C488.915 331.272 487.587 330.104 487.587 327.768C487.587 327.256 487.619 326.856 487.683 326.568L488.883 317.448L493.491 317.448L492.483 325.944C492.451 326.072 492.435 326.232 492.435 326.424C492.435 326.648 492.499 326.808 492.627 326.904C492.755 327 492.979 327.048 493.299 327.048L499.683 327.048C502.915 327.048 506.115 326.552 509.283 325.56L508.803 330.024ZM499.347 324.456L496.803 317.544L501.171 317.544L504.099 324.456L499.347 324.456ZM476.883 328.488L481.347 318.216L486.003 318.216L481.875 328.488L476.883 328.488ZM508.851 318.312L513.555 318.312L517.971 328.152L512.931 328.152L508.851 318.312Z"/>
<path d="M524.835 335.736C526.275 331.256 527.395 327.256 528.195 323.736L533.571 323.736C532.419 327.672 530.995 331.672 529.299 335.736L524.835 335.736Z"/>
<path d="M579.075 331.416C577.987 331.352 577.019 331.216 576.171 331.008C575.323 330.8 574.483 330.472 573.651 330.024L574.179 325.512C575.395 326.184 576.547 326.616 577.635 326.808C577.731 326.84 577.843 326.856 577.971 326.856C578.099 326.856 578.187 326.816 578.235 326.736C578.283 326.656 578.323 326.472 578.355 326.184L579.699 315.096L574.131 316.632L574.755 311.88C576.803 311.464 578.627 311.016 580.227 310.536L581.235 302.088L575.859 302.088L576.387 297.96L581.763 297.96L582.675 290.28L586.947 290.28L586.035 297.96L590.499 297.96L590.067 302.088L585.555 302.088L584.691 309.144C586.131 308.728 587.619 308.248 589.155 307.704L588.579 312.312L584.163 313.752L582.531 327.672C582.179 330.296 581.027 331.544 579.075 331.416ZM613.011 307.848L591.555 307.848L593.235 294.552C593.523 292.504 594.723 291.48 596.835 291.48L611.043 291.48C612.195 291.48 613.067 291.76 613.659 292.32C614.251 292.88 614.547 293.704 614.547 294.792C614.547 295.144 614.531 295.416 614.499 295.608L613.011 307.848ZM609.843 295.128L597.315 295.128L596.979 297.912L609.507 297.912L609.843 295.128ZM596.547 301.272L596.211 304.2L608.835 304.2L609.171 301.272L596.547 301.272ZM595.779 316.056C595.427 317.752 594.883 319.64 594.147 321.72C595.587 323.736 597.203 325.224 598.995 326.184L600.387 314.04L589.779 314.04L590.259 310.296L614.979 310.296L614.547 314.04L604.851 314.04L604.371 318.264L612.819 318.264L612.387 322.008L603.939 322.008L603.315 327.288L614.739 327.288L613.443 331.176L602.019 331.176C600.227 331.176 598.403 330.6 596.547 329.448C595.107 328.616 593.699 327.416 592.323 325.848C591.139 328.088 589.891 330.024 588.579 331.656L584.403 330.264C586.323 328.184 587.851 325.984 588.987 323.664C590.123 321.344 591.011 318.808 591.651 316.056L595.779 316.056Z"/>
<path d="M663.219 295.272L662.691 299.496L625.443 299.496L625.923 295.272L642.291 295.272L640.611 290.376L645.651 290.376L647.331 295.272L663.219 295.272ZM629.187 313.128L623.043 313.128L634.515 301.272L639.987 301.272L633.027 308.904L637.059 308.904C638.435 311.4 640.339 313.864 642.771 316.296C645.331 314.024 647.411 311.56 649.011 308.904L653.379 308.904L647.475 301.272L652.611 301.272L662.403 313.128L656.691 313.128L654.003 309.672C651.763 313.16 649.107 316.344 646.035 319.224C650.547 322.872 655.875 325.976 662.019 328.536L657.987 331.752C652.067 329.064 646.931 325.864 642.579 322.152C637.843 325.896 631.955 329.048 624.915 331.608L621.075 328.488C628.243 325.96 634.323 322.824 639.315 319.08C636.403 316.008 634.083 312.856 632.355 309.624L629.187 313.128Z"/>
<path d="M675.123 290.664L683.859 293.976L683.235 298.68L674.547 295.176L675.123 290.664ZM706.467 291.912C707.843 291.912 708.859 292.2 709.515 292.776C710.171 293.352 710.499 294.28 710.499 295.56C710.499 296.136 710.467 296.6 710.403 296.952L706.851 326.952C706.659 328.584 706.179 329.768 705.411 330.504C704.643 331.24 703.507 331.56 702.003 331.464C699.571 331.336 696.931 330.92 694.083 330.216L694.515 325.752C696.019 326.136 698.163 326.52 700.947 326.904C701.043 326.936 701.155 326.952 701.283 326.952C701.539 326.952 701.739 326.872 701.883 326.712C702.027 326.552 702.115 326.264 702.147 325.848L705.555 296.424L685.875 296.424L686.355 291.912L706.467 291.912ZM670.419 331.464L673.971 299.688L678.771 299.688L675.075 331.464L670.419 331.464ZM697.875 320.856L681.315 320.856L683.091 306.024C683.411 303.304 684.755 301.944 687.123 301.944L695.523 301.944C697.027 301.944 698.099 302.296 698.739 303C699.379 303.704 699.635 304.76 699.507 306.168L697.875 320.856ZM686.115 316.824L693.939 316.824L695.139 306.024L687.411 306.024L686.115 316.824Z"/>
<path d="M730.899 291.288L732.819 296.76L736.563 296.76C737.363 294.744 738.051 292.552 738.627 290.184L743.331 290.184C742.723 292.744 742.083 294.936 741.411 296.76L746.643 296.76L749.475 291.288L754.275 291.288L751.299 296.76L757.491 296.76L756.963 300.84L739.827 300.84C739.155 302.344 738.531 303.56 737.955 304.488L758.643 304.488L758.067 308.664L748.131 308.664C751.235 312.152 755.139 315.176 759.843 317.736L755.763 320.472C753.587 319.288 751.379 317.672 749.139 315.624L749.139 316.056C748.883 318.04 748.579 319.752 748.227 321.192C747.811 323.144 746.435 324.12 744.099 324.12C742.179 324.12 739.619 323.752 736.419 323.016L736.899 319.176C739.203 319.72 741.347 320.056 743.331 320.184C743.523 320.184 743.683 320.12 743.811 319.992C743.939 319.864 744.051 319.624 744.147 319.272C744.339 318.632 744.467 318.008 744.531 317.4C744.595 316.792 744.643 316.392 744.675 316.2L731.763 316.2L730.707 325.752C730.643 326.2 730.723 326.512 730.947 326.688C731.171 326.864 731.555 326.952 732.099 326.952L740.547 326.952C742.883 326.952 744.947 326.84 746.739 326.616C748.211 326.456 750.307 326.04 753.027 325.368L752.691 329.88C750.707 330.424 748.691 330.792 746.643 330.984C745.043 331.144 743.011 331.224 740.547 331.224L730.563 331.224C727.491 331.224 725.955 329.88 725.955 327.192C725.955 326.968 725.987 326.6 726.051 326.088L727.251 316.392C724.659 318.248 722.467 319.656 720.675 320.616L716.451 317.976C721.763 315.256 726.019 312.152 729.219 308.664L719.379 308.664L719.907 304.488L732.579 304.488C733.315 303.4 734.035 302.184 734.739 300.84L722.115 300.84L722.643 296.76L728.403 296.76L726.627 291.288L730.899 291.288ZM745.347 312.312C745.635 312.312 745.827 312.328 745.923 312.36C744.931 311.272 743.923 310.04 742.899 308.664L735.123 308.664C734.259 309.848 733.203 311.064 731.955 312.312L745.347 312.312Z"/>
</g>
</g>
</svg>
